<?xml version="1.0" standalone="no"?>
<!DOCTYPE svg PUBLIC "-//W3C//DTD SVG 20010904//EN"
 "http://www.w3.org/TR/2001/REC-SVG-20010904/DTD/svg10.dtd">
<svg version="1.0" xmlns="http://www.w3.org/2000/svg"
 width="1024.000000pt" height="1024.000000pt" viewBox="0 0 1024.000000 1024.000000"
 preserveAspectRatio="xMidYMid meet">

<g transform="translate(0.000000,1024.000000) scale(0.100000,-0.100000)"
fill="#000000" stroke="none">
<path d="M5160 8163 c-315 -17 -570 -65 -842 -159 -130 -46 -320 -128 -415
-180 -26 -15 -77 -43 -113 -62 -294 -161 -634 -460 -872 -768 -263 -340 -461
-772 -524 -1144 -9 -58 -18 -106 -20 -108 -2 -3 -496 -41 -543 -42 -18 0 -22
-4 -16 -17 12 -33 83 -275 160 -553 103 -367 213 -734 287 -958 51 -155 66
-189 95 -217 41 -40 99 -56 174 -48 l56 5 62 -118 c145 -277 401 -608 625
-807 542 -482 1236 -761 1951 -784 630 -20 1316 198 1805 575 365 281 625 592
820 982 40 80 73 146 74 147 0 1 39 7 86 13 107 14 247 60 322 106 125 76 259
242 317 394 51 130 66 226 66 410 -1 201 -20 295 -95 445 -84 170 -215 306
-370 383 -41 20 -77 38 -78 39 -2 1 -14 51 -27 111 -149 705 -534 1323 -1091
1754 -463 358 -991 560 -1564 597 -157 10 -205 11 -330 4z m465 -269 c425 -50
859 -228 1188 -489 31 -25 57 -49 57 -53 -1 -4 -11 -20 -24 -36 l-24 -29 -58
45 c-88 67 -210 148 -223 148 -6 0 -11 3 -11 8 0 4 -22 18 -50 31 -41 20 -51
22 -65 11 -13 -11 -15 -10 -10 2 4 10 -4 23 -23 37 -37 26 -72 28 -71 4 0 -10
3 -13 5 -7 7 17 44 5 44 -13 0 -13 -3 -13 -15 -3 -9 8 -15 8 -15 2 0 -24 14
-44 37 -53 13 -5 22 -13 18 -18 -6 -10 10 -24 91 -74 28 -18 104 -82 168 -144
l116 -111 0 -53 c1 -30 9 -79 20 -109 20 -59 19 -70 -9 -70 -20 0 -38 19 -69
73 -12 20 -26 43 -32 50 -6 6 -20 23 -31 37 -17 20 -22 22 -30 10 -8 -12 -9
-9 -7 10 2 19 -2 26 -19 28 -16 2 -23 -2 -23 -12 0 -9 -4 -16 -10 -16 -5 0 -7
-13 -3 -30 3 -18 1 -30 -5 -30 -10 0 -2 -33 19 -85 22 -51 36 -184 26 -230 -8
-35 -7 -65 2 -118 7 -40 15 -121 18 -181 l6 -109 -47 27 c-52 30 -61 29 -69
-11 -3 -16 -11 -46 -17 -68 -6 -22 -14 -51 -17 -65 -6 -29 -115 -258 -150
-313 -13 -21 -21 -42 -18 -47 4 -6 -21 -10 -63 -10 -55 0 -75 -4 -96 -21 -24
-19 -26 -26 -26 -95 0 -41 -3 -74 -6 -74 -3 0 -29 20 -57 45 -29 25 -80 59
-115 76 -112 55 -173 68 -372 80 -197 12 -573 5 -615 -11 -42 -16 -65 -66 -65
-143 l0 -69 -67 62 c-77 70 -178 123 -270 141 -35 6 -63 15 -63 20 0 18 100
83 202 132 79 38 106 56 102 67 -3 8 -8 36 -11 62 -5 40 -3 49 12 54 10 4 73
-5 141 -20 96 -22 127 -25 143 -16 29 15 60 79 77 159 37 174 0 274 -166 452
l-88 94 28 35 c70 89 104 200 94 307 -6 71 -6 72 19 79 15 3 31 4 38 2 6 -2
21 -37 33 -78 42 -142 100 -234 207 -325 56 -48 179 -125 199 -125 14 0 104
63 205 144 62 50 71 54 82 40 7 -9 17 -13 24 -8 8 4 10 3 5 -4 -5 -8 5 -12 31
-14 51 -2 56 -2 70 -11 6 -4 14 -1 16 5 3 7 6 3 6 -9 1 -13 10 -24 23 -29 13
-4 29 -14 36 -23 11 -14 12 -13 3 6 -15 30 -14 48 2 36 6 -6 22 -12 34 -15 17
-5 21 -2 18 13 -2 11 0 17 5 14 17 -11 166 76 226 133 81 75 32 213 -98 278
-31 16 -45 35 -87 119 -69 140 -196 297 -285 354 -98 61 -170 74 -371 68 -163
-6 -258 -19 -400 -56 -109 -28 -253 -83 -334 -127 -146 -81 -139 -78 -190 -67
-25 6 -66 19 -91 28 -100 38 -222 -6 -322 -114 -41 -45 -84 -79 -123 -99 -98
-49 -120 -92 -62 -120 39 -19 111 4 217 69 165 101 203 114 252 88 11 -6 67
-19 125 -29 113 -20 169 -44 222 -93 74 -70 93 -182 45 -264 -29 -51 -56 -54
-64 -8 l-5 29 -12 -27 c-14 -29 -39 -35 -66 -14 -23 17 -57 86 -57 117 0 62
-53 90 -170 90 -48 0 -78 -6 -110 -22 -43 -22 -45 -25 -48 -71 l-3 -48 -37 1
c-43 2 -183 -23 -203 -36 -8 -5 -18 -9 -24 -10 -5 0 -16 -2 -23 -2 -8 -1 -12
-8 -9 -14 4 -13 -61 -65 -76 -60 -5 1 -6 -2 -2 -7 12 -20 -42 -43 -83 -36 -35
6 -42 3 -60 -20 -27 -34 -36 -82 -28 -139 l7 -43 103 -51 c156 -76 212 -144
223 -273 l6 -58 24 50 c14 28 61 87 105 132 89 91 103 115 113 202 11 84 44
154 95 198 24 20 46 37 49 37 3 0 16 -19 29 -43 12 -24 43 -67 68 -95 44 -50
48 -52 97 -52 29 0 59 -6 68 -13 9 -7 50 -58 92 -113 41 -56 89 -111 106 -123
21 -15 35 -38 46 -73 8 -29 12 -55 8 -59 -5 -4 -26 -1 -48 7 -54 19 -158 18
-197 -2 -16 -9 -27 -11 -24 -5 5 7 -4 6 -25 -1 -45 -15 -100 -73 -132 -139
-22 -45 -35 -60 -69 -75 -59 -27 -130 -84 -218 -175 -63 -66 -86 -83 -145
-107 -113 -45 -174 -57 -247 -45 -59 10 -344 -5 -445 -22 -52 -9 -99 -62 -120
-133 -10 -34 -20 -62 -23 -62 -3 0 -11 19 -18 43 -29 108 -80 142 -196 133
-39 -3 -104 -8 -145 -11 -136 -10 -183 -32 -219 -107 l-21 -41 -12 29 c-36 94
77 509 214 781 55 109 168 284 260 402 131 169 408 439 562 548 372 263 737
418 1150 488 214 36 527 40 790 9z m-20 -228 c125 -62 236 -187 312 -354 19
-42 39 -85 44 -94 14 -28 11 -31 -13 -16 -41 27 -125 49 -186 49 -103 1 -147
-30 -205 -147 -14 -28 -39 -63 -55 -76 -17 -14 -32 -33 -33 -43 -3 -14 -14 -8
-52 31 -70 73 -94 114 -117 199 -11 43 -28 91 -36 107 -39 74 -153 171 -238
199 -28 10 -52 22 -54 27 -6 20 44 64 113 98 102 48 185 64 327 61 112 -3 119
-4 193 -41z m1523 -517 c45 -49 82 -93 82 -97 0 -10 -58 -42 -63 -34 -2 4 -3
2 -1 -4 1 -6 -2 -17 -6 -25 -6 -9 -2 -20 11 -32 11 -10 17 -22 14 -28 -4 -5
-2 -9 4 -9 6 0 17 -14 26 -30 12 -23 13 -35 5 -50 -11 -21 -44 -27 -55 -10 -4
6 -10 8 -14 6 -13 -9 -110 84 -138 132 -36 61 -37 137 -4 202 26 51 41 70 50
69 3 -1 43 -41 89 -90z m-3002 -326 c-3 -10 -8 -39 -12 -65 l-6 -48 -27 16
c-15 9 -38 24 -51 34 l-23 18 54 31 c62 36 72 38 65 14z m2812 -97 c56 -29 81
-54 88 -90 4 -24 3 -26 -15 -16 -16 8 -33 3 -88 -24 -64 -33 -69 -34 -87 -18
-45 41 -60 116 -28 144 38 34 69 35 130 4z m455 -44 c26 -29 66 -127 73 -180
9 -73 -17 -124 -106 -202 -85 -76 -105 -111 -114 -205 -4 -38 -13 -83 -21
-100 -18 -37 -81 -89 -96 -79 -7 4 -21 7 -32 8 -31 2 -62 51 -62 101 0 53 21
78 84 101 68 25 84 48 77 108 -3 26 -14 64 -26 83 -11 19 -20 36 -20 39 0 2
23 26 52 53 l52 49 1 92 c0 91 0 92 33 121 37 33 81 38 105 11z m-687 -281
c-3 -4 -1 -13 5 -21 5 -9 9 -10 9 -3 0 14 50 -7 50 -21 0 -5 7 -18 17 -28 15
-17 15 -18 -1 -18 -24 0 -58 19 -51 29 3 5 -2 12 -10 15 -12 4 -13 2 -7 -12 5
-9 8 -25 7 -34 -2 -10 2 -21 7 -25 7 -4 8 -1 3 7 -5 9 -4 11 3 6 13 -8 16 -45
6 -71 -5 -13 -8 -14 -15 -3 -5 7 -9 23 -9 36 0 12 -7 25 -15 28 -11 5 -13 16
-9 44 4 22 1 53 -5 71 -9 27 -9 30 4 19 8 -7 13 -15 11 -19z m191 -106 c0 -8
-4 -12 -9 -9 -5 3 -6 10 -3 15 9 13 12 11 12 -6z m-180 -132 c-3 -10 -5 -4 -5
12 0 17 2 24 5 18 2 -7 2 -21 0 -30z m-37 -308 c0 -5 -5 -3 -10 5 -5 8 -10 20
-10 25 0 6 5 3 10 -5 5 -8 10 -19 10 -25z m-20 -25 c0 -5 -5 -10 -11 -10 -5 0
-7 5 -4 10 3 6 8 10 11 10 2 0 4 -4 4 -10z m63 -31 c-8 -8 -13 -7 -18 2 -5 8
-4 10 3 5 7 -4 12 -2 12 5 0 7 3 9 7 6 4 -4 2 -12 -4 -18z m41 -65 c3 -8 2
-12 -4 -9 -6 3 -10 10 -10 16 0 14 7 11 14 -7z m9 -39 c4 -8 3 -16 -1 -19 -4
-3 -9 4 -9 15 -2 23 3 25 10 4z m388 -40 l52 -7 -7 -172 c-3 -94 -6 -233 -6
-308 l0 -137 -62 5 c-129 10 -145 14 -156 37 -23 46 -41 146 -43 245 -2 56 -7
102 -11 102 -4 0 -8 9 -8 20 0 13 -14 27 -40 40 l-41 21 23 41 c13 22 54 69
92 104 l69 64 43 -24 c23 -13 66 -27 95 -31z m-2690 -71 c137 -40 244 -130
302 -251 l32 -68 3 -262 c3 -243 2 -267 -18 -342 -47 -175 -185 -312 -351
-350 -24 -6 -83 -11 -130 -11 -229 0 -402 131 -466 353 -21 73 -30 423 -13
525 18 115 57 191 137 271 104 103 217 149 369 150 46 1 103 -6 135 -15z
m1233 -8 c130 -37 249 -132 301 -241 96 -203 21 -455 -164 -554 -34 -18 -61
-34 -61 -36 0 -2 54 -86 121 -187 66 -101 125 -191 130 -200 9 -17 0 -18 -139
-18 l-148 0 -133 195 -132 195 -70 0 -69 0 0 -188 c0 -104 -2 -191 -4 -193 -2
-2 -63 -3 -135 -1 l-131 3 0 626 0 625 288 -5 c228 -3 299 -8 346 -21z m-2017
-188 c-31 -101 -75 -255 -100 -343 -183 -657 -222 -784 -242 -789 -11 -2 -61
-8 -111 -11 l-91 -7 -33 103 c-45 142 -147 500 -156 544 -3 19 -9 37 -13 39
-4 3 -40 -118 -80 -267 -40 -150 -85 -315 -100 -367 l-27 -95 -102 -10 c-72
-8 -105 -8 -111 0 -10 13 -94 276 -160 500 -71 241 -221 779 -218 781 8 6 253
22 258 16 6 -6 198 -668 214 -737 6 -25 14 -3 46 125 68 270 130 502 155 583
l25 77 38 0 c21 0 65 3 99 6 l60 7 22 -73 c12 -40 44 -159 72 -264 28 -105 65
-245 83 -311 l32 -120 12 45 c7 25 34 124 61 220 26 96 58 211 70 255 54 199
81 275 98 276 111 9 248 13 250 7 2 -4 -21 -89 -51 -190z m2806 175 l67 -6 0
-493 0 -493 33 -5 c17 -3 75 -8 127 -11 121 -8 413 -33 463 -41 l37 -6 0 -125
0 -126 -62 7 c-154 15 -567 46 -705 52 l-153 7 0 623 0 624 63 0 c34 0 92 -3
130 -7z m1178 -28 c344 -35 483 -85 621 -226 62 -64 126 -182 149 -279 21 -82
18 -347 -5 -430 -73 -278 -288 -435 -567 -416 -48 3 -131 12 -185 20 -55 8
-126 17 -160 21 l-61 7 -7 85 c-3 46 -3 343 1 659 l6 574 27 0 c15 0 96 -7
181 -15z m-3771 -1374 c129 -102 381 -148 670 -122 137 12 217 34 291 81 l47
31 37 -25 c20 -14 55 -27 78 -30 98 -12 468 -28 502 -22 24 5 49 20 69 42 32
35 32 35 55 17 l23 -19 -22 -44 c-21 -40 -106 -154 -155 -206 -11 -12 -26 -30
-33 -40 -12 -18 -13 -18 -7 1 5 19 4 19 -9 3 -16 -21 -26 -23 -26 -5 0 7 -7
22 -15 33 -13 16 -13 13 1 -21 9 -22 18 -47 21 -55 15 -42 47 -110 53 -110 3
0 22 44 41 98 l35 97 42 3 c30 2 42 -1 42 -10 -1 -7 -29 -78 -63 -158 l-63
-145 -39 0 -39 0 -50 118 -49 118 -28 -58 -28 -57 24 -57 c24 -60 23 -69 -7
-69 -10 0 -18 -6 -18 -12 0 -7 -16 -24 -34 -38 -19 -14 -33 -27 -31 -28 12
-12 -105 -104 -135 -106 -8 -1 -28 -10 -43 -20 -15 -10 -31 -15 -35 -11 -4 4
-1 10 6 12 6 3 12 20 12 39 0 41 19 37 21 -4 1 -18 3 -21 6 -9 3 13 10 16 26
11 20 -6 19 -4 -6 24 -25 26 -31 28 -53 18 -24 -11 -32 -26 -14 -26 6 0 10 -9
10 -20 0 -19 -14 -24 -60 -21 -10 0 -11 -1 -2 -5 24 -11 13 -34 -17 -34 -17 0
-32 -4 -35 -9 -4 -5 4 -7 16 -4 19 4 20 3 8 -6 -12 -9 -10 -11 13 -11 42 0 32
-18 -26 -43 -45 -21 -55 -31 -76 -75 -14 -29 -27 -52 -30 -52 -4 0 -14 22 -24
50 -17 48 -46 76 -70 67 -7 -3 0 -8 16 -12 15 -4 27 -11 27 -17 0 -5 -10 -7
-22 -3 -20 5 -21 4 -5 -5 9 -6 22 -8 27 -5 7 4 8 -3 4 -21 -5 -19 -4 -25 5
-20 14 9 14 -3 -1 -37 -7 -15 -20 -27 -28 -26 -10 0 -11 2 -2 6 25 10 11 23
-24 23 -33 0 -36 -2 -32 -25 5 -21 2 -25 -14 -19 -12 3 -17 1 -16 -6 2 -7 -3
-15 -10 -17 -7 -3 -10 1 -6 10 6 17 -23 37 -51 37 -14 0 -16 -7 -13 -35 4 -31
1 -35 -19 -35 -18 0 -23 6 -23 25 0 22 -5 25 -37 26 -55 3 -66 4 -86 13 -9 5
-34 5 -55 0 -20 -5 -53 -8 -72 -9 -30 0 -35 -3 -32 -22 2 -16 -2 -23 -12 -23
-9 0 -16 3 -16 8 0 4 -8 17 -18 30 -15 20 -22 22 -44 13 -22 -8 -28 -7 -31 7
-3 9 -5 0 -6 -21 -1 -47 -17 -65 -58 -63 l-31 1 31 42 c16 23 34 40 40 36 6
-3 7 -1 3 5 -3 6 7 37 23 69 43 86 61 157 68 268 9 159 -34 286 -137 398 -46
51 -87 76 -220 137 -10 5 -17 29 -22 71 -3 35 -11 84 -18 109 -6 25 -14 65
-16 90 l-5 45 41 -43 c23 -23 63 -60 90 -81z m2454 -123 c22 -35 37 -103 39
-178 1 -38 5 -72 10 -76 12 -13 8 -42 -8 -48 -9 -3 -15 0 -15 9 0 24 -20 17
-22 -7 -1 -13 -4 2 -8 32 l-7 55 -1 -68 c-1 -38 2 -66 6 -63 5 3 9 -1 9 -9 0
-8 -4 -12 -8 -10 -4 3 -10 -11 -13 -30 -4 -19 -10 -35 -14 -35 -4 0 -20 33
-36 73 -23 58 -30 92 -34 179 -2 58 -1 127 2 152 7 46 8 46 46 46 30 0 43 -5
54 -22z m-3328 -245 c156 -243 341 -452 564 -637 136 -113 127 -102 105 -126
-10 -11 -21 -20 -26 -20 -4 0 -49 32 -101 72 -125 96 -366 339 -461 466 -70
93 -197 295 -197 313 0 7 10 10 52 18 5 0 33 -38 64 -86z m2735 67 c18 0 19
-9 19 -154 0 -95 -4 -157 -10 -161 -6 -4 -24 -4 -40 0 l-30 7 0 152 c0 84 3
156 7 160 4 3 13 4 21 1 7 -3 22 -5 33 -5z m295 -47 c9 -27 37 -95 61 -153 25
-58 47 -111 50 -117 4 -9 -7 -13 -36 -13 -35 0 -43 4 -51 25 -5 14 -17 25 -28
25 -11 0 -39 3 -64 6 -40 6 -45 4 -56 -20 -11 -26 -44 -35 -68 -18 -7 5 9 57
49 160 l61 152 32 0 c30 0 34 -4 50 -47z m-2270 -113 c0 -12 -4 -16 -9 -11 -5
5 -6 14 -3 20 10 15 12 14 12 -9z m2621 -2 c-3 -8 -6 -5 -6 6 -1 11 2 17 5 13
3 -3 4 -12 1 -19z m-2572 1 c11 -16 1 -19 -13 -3 -7 8 -8 14 -3 14 5 0 13 -5
16 -11z m38 -14 c4 -8 1 -17 -5 -21 -7 -4 -8 -3 -4 4 4 7 2 12 -3 12 -6 0 -11
5 -11 10 0 15 17 12 23 -5z m-24 -31 c14 -12 -19 -1 -35 12 -18 14 -18 14 6 3
14 -6 27 -13 29 -15z m2563 -19 c3 3 3 -7 0 -22 -4 -19 -7 -22 -10 -10 -5 22
-11 22 -39 -5 -13 -12 -23 -17 -23 -12 0 5 9 16 20 24 11 8 20 21 20 28 0 11
3 12 13 3 8 -6 16 -8 19 -6z m-5 -68 c0 -9 -9 -12 -24 -9 -12 2 -23 8 -23 13
0 5 11 9 23 9 13 0 24 -6 24 -13z m-2867 -8 c74 -16 161 -77 193 -137 15 -28
27 -61 27 -76 0 -26 0 -26 -62 -20 -112 11 -235 83 -269 157 -25 56 -24 64 9
75 36 14 43 14 102 1z m2843 -23 c3 3 3 -3 0 -15 -3 -12 -8 -21 -12 -21 -4 0
-8 -14 -9 -32 -2 -18 -5 -34 -8 -37 -3 -4 -3 20 0 52 3 37 2 56 -4 52 -6 -3
-10 4 -10 17 l1 23 18 -22 c10 -12 21 -20 24 -17z m-124 -166 c18 -9 17 -14
-13 -89 -18 -44 -35 -83 -39 -87 -14 -14 -39 70 -34 113 7 67 38 89 86 63z
m-1262 -56 c-3 -3 -12 -4 -19 -1 -8 3 -5 6 6 6 11 1 17 -2 13 -5z m-502 -284
c3 -5 -1 -10 -9 -10 -9 0 -16 5 -16 10 0 6 4 10 9 10 6 0 13 -4 16 -10z m-50
-10 c3 -5 1 -10 -4 -10 -6 0 -11 5 -11 10 0 6 2 10 4 10 3 0 8 -4 11 -10z
m-465 -125 c78 -49 266 -139 390 -186 346 -130 706 -190 1162 -193 130 0 235
-2 234 -4 -2 -1 -68 -12 -147 -24 -342 -51 -765 -17 -1109 90 -199 62 -393
146 -549 236 l-104 60 29 23 c37 29 45 29 94 -2z"/>
<path d="M6075 7630 c2 -4 14 -10 26 -13 16 -4 19 -3 11 5 -14 14 -45 20 -37
8z"/>
<path d="M6143 7621 c1 -16 6 -19 23 -15 12 3 25 1 28 -5 4 -6 1 -11 -6 -11
-7 0 -2 -7 10 -16 26 -18 63 -15 70 5 3 10 0 12 -13 7 -19 -7 -48 11 -40 24 7
11 -2 16 -42 24 -28 6 -32 5 -30 -13z"/>
<path d="M6230 7615 c0 -10 10 -15 26 -15 22 0 25 2 14 15 -7 8 -19 15 -26 15
-8 0 -14 -7 -14 -15z"/>
<path d="M3925 7000 c-3 -6 1 -7 9 -4 18 7 21 14 7 14 -6 0 -13 -4 -16 -10z"/>
<path d="M4225 5341 c-22 -10 -52 -31 -67 -47 -51 -55 -58 -95 -58 -343 0
-198 3 -231 19 -266 36 -81 122 -130 212 -122 65 6 103 23 147 68 60 61 65 84
70 304 4 164 1 212 -12 265 -28 107 -97 160 -211 160 -37 0 -75 -7 -100 -19z"/>
<path d="M5330 5159 l0 -201 154 4 c153 3 155 3 197 33 61 44 82 76 87 138 8
96 -34 172 -113 208 -33 15 -66 19 -182 19 l-143 0 0 -201z"/>
<path d="M7710 4882 l0 -409 38 -6 c196 -31 278 -15 358 67 66 67 74 102 74
304 0 194 -11 239 -77 312 -71 79 -166 119 -320 135 l-73 7 0 -410z"/>
<path d="M5323 3873 c9 -2 23 -2 30 0 6 3 -1 5 -18 5 -16 0 -22 -2 -12 -5z"/>
<path d="M5138 3683 c6 -2 18 -2 25 0 6 3 1 5 -13 5 -14 0 -19 -2 -12 -5z"/>
<path d="M4900 3645 c0 -5 5 -17 10 -25 5 -8 10 -10 10 -5 0 6 -5 17 -10 25
-5 8 -10 11 -10 5z"/>
<path d="M5020 3641 c0 -7 -3 -10 -7 -8 -5 3 -9 -7 -10 -21 l-1 -27 15 28 c8
16 12 31 9 35 -3 3 -6 0 -6 -7z"/>
<path d="M4762 3583 c3 -37 2 -38 -37 -44 -22 -4 -43 -5 -47 -2 -5 2 -8 1 -8
-4 0 -19 -219 -130 -332 -167 -109 -36 -137 -60 -116 -100 7 -13 6 -21 -3 -27
-7 -4 -11 -10 -9 -13 8 -7 73 -9 90 -3 8 3 32 8 53 12 70 11 273 100 342 149
50 35 95 57 106 51 5 -4 8 -2 7 3 -2 6 23 31 56 56 53 42 68 50 87 48 3 -1 4
10 1 23 -2 14 -8 22 -13 19 -5 -3 -9 0 -9 7 0 7 -3 10 -6 7 -3 -4 -1 -15 5
-27 10 -18 8 -21 -26 -27 -39 -7 -58 7 -70 54 -4 17 -12 22 -40 22 -34 0 -34
-1 -31 -37z"/>
<path d="M5082 3575 c-8 -17 -21 -25 -49 -28 -28 -3 -25 -4 12 -3 37 1 49 5
47 15 -2 8 2 17 9 21 7 5 7 10 2 13 -6 4 -15 -4 -21 -18z"/>
<path d="M5137 3590 c12 -5 34 -5 50 0 24 7 21 8 -22 9 -38 0 -45 -2 -28 -9z"/>
<path d="M5230 3582 c0 -6 -8 -9 -17 -6 -15 5 -16 4 -3 -5 16 -11 40 3 27 16
-4 3 -7 1 -7 -5z"/>
<path d="M5125 3431 c-6 -11 13 -26 22 -17 4 3 0 6 -8 6 -11 0 -11 2 1 10 9 6
10 10 3 10 -6 0 -14 -4 -18 -9z"/>
<path d="M4965 3380 c-13 -6 -15 -9 -5 -9 8 0 22 4 30 9 18 12 2 12 -25 0z"/>
<path d="M4667 3249 c7 -7 15 -10 18 -7 3 3 -2 9 -12 12 -14 6 -15 5 -6 -5z"/>
<path d="M4620 3210 c8 -5 20 -10 25 -10 6 0 3 5 -5 10 -8 5 -19 10 -25 10 -5
0 -3 -5 5 -10z"/>
<path d="M4190 3100 c0 -5 14 -7 33 -3 45 8 47 13 4 13 -20 0 -37 -4 -37 -10z"/>
<path d="M4067 3053 c-4 -3 -7 -11 -7 -17 0 -6 5 -5 12 2 6 6 9 14 7 17 -3 3
-9 2 -12 -2z"/>
<path d="M6344 3940 c0 -58 1 -81 3 -52 2 28 2 76 0 105 -2 28 -3 5 -3 -53z"/>
<path d="M5987 3695 c-9 -20 -17 -38 -17 -40 0 -3 16 -5 36 -5 29 0 35 3 30
16 -3 9 -9 27 -12 40 -8 33 -17 30 -37 -11z"/>
</g>
</svg>
